<svg id="Layer_1" data-name="Layer 1" xmlns="http://www.w3.org/2000/svg" xmlns:xlink="http://www.w3.org/1999/xlink" viewBox="0 0 908 229"><defs><style>.cls-1{isolation:isolate;}.cls-2{fill:#fff;}.cls-3{fill:#ff2000;}.cls-4{fill:#e20000;}.cls-5{fill:#c70101;}.cls-6{fill:#a70000;}.cls-7{fill:#870000;}.cls-8{fill:#6c0000;}.cls-9{fill:#4f0000;}.cls-10{fill:#f60;}.cls-11{fill:#df5900;}.cls-12{fill:#b84a00;}.cls-13{fill:#9e4000;}.cls-14{fill:#813400;}.cls-15{fill:#ffa200;}.cls-16{fill:#e29000;}.cls-17{fill:#ca8100;}.cls-18{fill:#aa6d00;}.cls-19{fill:#8b5900;}.cls-20{fill:#fff200;}.cls-21{fill:#f7ec1b;}.cls-22{fill:#f3e83b;}.cls-23{fill:#d6c636;}.cls-24{fill:#c1b73d;}.cls-25{fill:#02b801;}.cls-26{fill:#019e00;}.cls-27{fill:#018400;}.cls-28{fill:#016d00;}.cls-29{fill:#014b00;}.cls-30{fill:#00d4ff;}.cls-31{fill:#00c3eb;}.cls-32{fill:#00b2d6;}.cls-33{fill:#0095b3;}.cls-34{fill:#007991;}.cls-35{fill:#0031ff;}.cls-36{fill:#002bdf;}.cls-37{fill:#0024ba;}.cls-38{fill:#001d98;}.cls-39{fill:#00187e;}.cls-40{fill:#8b20bb;}.cls-41{fill:#7100a3;}.cls-42{fill:#5d1186;}.cls-43{fill:#470a66;}.cls-44{fill:#330649;}.cls-45{fill:#f42494;}.cls-46{fill:#d71273;}.cls-47{fill:#b70d63;}.cls-48{fill:#9d0a55;}.cls-49{fill:#77063f;}</style></defs><title>logo</title><image class="cls-1" width="908" height="229" xlink:href="logo.png"/><rect class="cls-2" x="4.73" y="6.1" width="31" height="31"/><rect class="cls-3" x="6.03" y="7.3" width="28.5" height="28.5"/><rect class="cls-2" x="35.73" y="6.1" width="31" height="31"/><rect class="cls-3" x="37.03" y="7.3" width="28.5" height="28.5"/><rect class="cls-2" x="66.73" y="6.1" width="31" height="31"/><rect class="cls-3" x="68.03" y="7.3" width="28.5" height="28.5"/><rect class="cls-2" x="4.73" y="37.1" width="31" height="31"/><rect class="cls-4" x="6.03" y="38.3" width="28.5" height="28.5"/><rect class="cls-2" x="97.73" y="37.6" width="31" height="31"/><rect class="cls-4" x="99.03" y="38.8" width="28.5" height="28.5"/><rect class="cls-2" x="97.73" y="37" width="31" height="31"/><rect class="cls-4" x="99.03" y="38.2" width="28.5" height="28.5"/><rect class="cls-2" x="4.73" y="68.1" width="31" height="31"/><rect class="cls-5" x="6.03" y="69.3" width="28.5" height="28.5"/><rect class="cls-2" x="97.73" y="68.1" width="31" height="31"/><rect class="cls-5" x="99.03" y="69.3" width="28.5" height="28.5"/><rect class="cls-2" x="4.73" y="99" width="31" height="31"/><rect class="cls-6" x="6.03" y="100.2" width="28.5" height="28.5"/><rect class="cls-2" x="35.73" y="99" width="31" height="31"/><rect class="cls-6" x="37.03" y="100.2" width="28.5" height="28.5"/><rect class="cls-2" x="66.73" y="99" width="31" height="31"/><rect class="cls-6" x="68.03" y="100.2" width="28.5" height="28.5"/><rect class="cls-2" x="4.73" y="130" width="31" height="31"/><rect class="cls-7" x="6.03" y="131.2" width="28.5" height="28.5"/><rect class="cls-2" x="4.73" y="161" width="31" height="31"/><rect class="cls-8" x="6.03" y="162.2" width="28.5" height="28.5"/><rect class="cls-2" x="4.73" y="192" width="31" height="31"/><rect class="cls-9" x="6.03" y="193.2" width="28.5" height="28.5"/><rect class="cls-2" x="154.83" y="68.1" width="31" height="31"/><rect class="cls-10" x="156.13" y="69.3" width="28.5" height="28.5"/><rect class="cls-2" x="154.83" y="99.1" width="31" height="31"/><rect class="cls-11" x="156.13" y="100.3" width="28.5" height="28.5"/><rect class="cls-2" x="154.83" y="130.1" width="31" height="31"/><rect class="cls-12" x="156.13" y="131.3" width="28.5" height="28.5"/><rect class="cls-2" x="154.83" y="161.1" width="31" height="31"/><rect class="cls-13" x="156.13" y="162.3" width="28.5" height="28.5"/><rect class="cls-2" x="154.83" y="192.1" width="31" height="31"/><rect class="cls-14" x="156.13" y="193.3" width="28.5" height="28.5"/><rect class="cls-2" x="274.83" y="68.1" width="31" height="31"/><rect class="cls-15" x="276.13" y="69.3" width="28.5" height="28.5"/><rect class="cls-2" x="274.83" y="99.1" width="31" height="31"/><rect class="cls-16" x="276.13" y="100.3" width="28.5" height="28.5"/><rect class="cls-2" x="213.03" y="68.1" width="31" height="31"/><rect class="cls-15" x="214.23" y="69.3" width="28.5" height="28.5"/><rect class="cls-2" x="213.03" y="99.1" width="31" height="31"/><rect class="cls-16" x="214.23" y="100.3" width="28.5" height="28.5"/><rect class="cls-2" x="244.03" y="130" width="31" height="31"/><rect class="cls-17" x="245.23" y="131.2" width="28.5" height="28.5"/><rect class="cls-2" x="213.03" y="161" width="31" height="31"/><rect class="cls-18" x="214.23" y="162.2" width="28.5" height="28.5"/><rect class="cls-2" x="213.03" y="192" width="31" height="31"/><rect class="cls-19" x="214.23" y="193.2" width="28.5" height="28.5"/><rect class="cls-2" x="275.03" y="161.1" width="31" height="31"/><rect class="cls-18" x="276.23" y="162.3" width="28.5" height="28.5"/><rect class="cls-2" x="275.03" y="192.1" width="31" height="31"/><rect class="cls-19" x="276.23" y="193.3" width="28.5" height="28.5"/><rect class="cls-2" x="333.03" y="68.1" width="31" height="31"/><rect class="cls-20" x="334.23" y="69.3" width="28.5" height="28.5"/><rect class="cls-2" x="364.03" y="68.1" width="31" height="31"/><rect class="cls-20" x="365.23" y="69.3" width="28.5" height="28.5"/><rect class="cls-2" x="395.03" y="68.1" width="31" height="31"/><rect class="cls-20" x="396.23" y="69.3" width="28.5" height="28.5"/><rect class="cls-2" x="364.03" y="99.1" width="31" height="31"/><rect class="cls-21" x="365.23" y="100.3" width="28.5" height="28.5"/><rect class="cls-2" x="364.03" y="130" width="31" height="31"/><rect class="cls-22" x="365.23" y="131.2" width="28.5" height="28.5"/><rect class="cls-2" x="364.03" y="161" width="31" height="31"/><rect class="cls-23" x="365.23" y="162.2" width="28.5" height="28.5"/><rect class="cls-2" x="364.03" y="192" width="31" height="31"/><rect class="cls-24" x="365.23" y="193.2" width="28.5" height="28.5"/><rect class="cls-2" x="453.03" y="68.1" width="31" height="31"/><rect class="cls-25" x="454.23" y="69.3" width="28.5" height="28.5"/><rect class="cls-2" x="453.03" y="99.1" width="31" height="31"/><rect class="cls-26" x="454.23" y="100.3" width="28.5" height="28.5"/><rect class="cls-2" x="453.03" y="130" width="31" height="31"/><rect class="cls-27" x="454.23" y="131.2" width="28.5" height="28.5"/><rect class="cls-2" x="453.03" y="161" width="31" height="31"/><rect class="cls-28" x="454.23" y="162.2" width="28.5" height="28.5"/><rect class="cls-2" x="453.03" y="192" width="31" height="31"/><rect class="cls-29" x="454.23" y="193.2" width="28.5" height="28.5"/><rect class="cls-2" x="572.03" y="68.1" width="31" height="31"/><rect class="cls-30" x="573.23" y="69.3" width="28.5" height="28.5"/><rect class="cls-2" x="572.03" y="99" width="31" height="31"/><rect class="cls-31" x="573.23" y="100.2" width="28.5" height="28.5"/><rect class="cls-2" x="572.03" y="130" width="31" height="31"/><rect class="cls-32" x="573.23" y="131.2" width="28.5" height="28.5"/><rect class="cls-2" x="572.03" y="161" width="31" height="31"/><rect class="cls-33" x="573.23" y="162.2" width="28.5" height="28.5"/><rect class="cls-2" x="510.03" y="68.1" width="31" height="31"/><rect class="cls-30" x="511.23" y="69.3" width="28.5" height="28.5"/><rect class="cls-2" x="510.03" y="99" width="31" height="31"/><rect class="cls-31" x="511.23" y="100.2" width="28.5" height="28.5"/><rect class="cls-2" x="510.03" y="130" width="31" height="31"/><rect class="cls-32" x="511.23" y="131.2" width="28.5" height="28.5"/><rect class="cls-2" x="510.03" y="161" width="31" height="31"/><rect class="cls-33" x="511.23" y="162.2" width="28.5" height="28.5"/><rect class="cls-2" x="541.03" y="192" width="31" height="31"/><rect class="cls-34" x="542.23" y="193.2" width="28.5" height="28.5"/><rect class="cls-2" x="630.73" y="68.1" width="31" height="31"/><rect class="cls-35" x="632.03" y="69.3" width="28.5" height="28.5"/><rect class="cls-2" x="630.73" y="99.1" width="31" height="31"/><rect class="cls-36" x="632.03" y="100.3" width="28.5" height="28.5"/><rect class="cls-2" x="630.73" y="130" width="31" height="31"/><rect class="cls-37" x="632.03" y="131.2" width="28.5" height="28.5"/><rect class="cls-2" x="630.73" y="161" width="31" height="31"/><rect class="cls-38" x="632.03" y="162.2" width="28.5" height="28.5"/><rect class="cls-2" x="630.73" y="192" width="31" height="31"/><rect class="cls-39" x="632.03" y="193.2" width="28.5" height="28.5"/><rect class="cls-2" x="689.03" y="68" width="31" height="31"/><rect class="cls-40" x="690.23" y="69.2" width="28.5" height="28.5"/><rect class="cls-2" x="720.03" y="68" width="31" height="31"/><rect class="cls-40" x="721.23" y="69.2" width="28.5" height="28.5"/><rect class="cls-2" x="751.03" y="68" width="31" height="31"/><rect class="cls-40" x="752.23" y="69.2" width="28.5" height="28.5"/><rect class="cls-2" x="720.03" y="99" width="31" height="31"/><rect class="cls-41" x="721.23" y="100.2" width="28.5" height="28.5"/><rect class="cls-2" x="719.98" y="129.95" width="31" height="31"/><rect class="cls-42" x="721.28" y="131.25" width="28.5" height="28.5"/><rect class="cls-2" x="720.03" y="160.95" width="31" height="31"/><rect class="cls-43" x="721.33" y="162.25" width="28.5" height="28.5"/><rect class="cls-2" x="719.98" y="192" width="31" height="31"/><rect class="cls-44" x="721.28" y="193.3" width="28.5" height="28.5"/><rect class="cls-2" x="809.16" y="68" width="31" height="31"/><rect class="cls-45" x="810.36" y="69.2" width="28.5" height="28.5"/><rect class="cls-2" x="809.16" y="99" width="31" height="31"/><rect class="cls-46" x="810.36" y="100.2" width="28.5" height="28.5"/><rect class="cls-2" x="809.11" y="130" width="31" height="31"/><rect class="cls-47" x="810.31" y="131.2" width="28.5" height="28.5"/><rect class="cls-2" x="871.16" y="68" width="31" height="31"/><rect class="cls-45" x="872.36" y="69.2" width="28.5" height="28.5"/><rect class="cls-2" x="871.16" y="99" width="31" height="31"/><rect class="cls-46" x="872.36" y="100.2" width="28.5" height="28.5"/><rect class="cls-2" x="871.11" y="130" width="31" height="31"/><rect class="cls-47" x="872.31" y="131.2" width="28.5" height="28.5"/><rect class="cls-2" x="840.11" y="130" width="31" height="31"/><rect class="cls-47" x="841.31" y="131.2" width="28.5" height="28.5"/><rect class="cls-2" x="871.11" y="161" width="31" height="31"/><rect class="cls-48" x="872.31" y="162.2" width="28.5" height="28.5"/><rect class="cls-2" x="871.11" y="192" width="31" height="31"/><rect class="cls-49" x="872.31" y="193.2" width="28.5" height="28.5"/><rect class="cls-2" x="840.06" y="192" width="31" height="31"/><rect class="cls-49" x="841.26" y="193.2" width="28.5" height="28.5"/><rect class="cls-2" x="809.33" y="191.95" width="31" height="31"/><rect class="cls-49" x="810.53" y="193.15" width="28.5" height="28.5"/></svg>